<?xml version="1.0" encoding="utf-8"?>
<!-- Generator: Adobe Illustrator 21.0.0, SVG Export Plug-In . SVG Version: 6.00 Build 0)  -->
<svg version="1.1" id="Layer_1" xmlns="http://www.w3.org/2000/svg" xmlns:xlink="http://www.w3.org/1999/xlink" x="0px" y="0px"
	 viewBox="0 0 500 500" style="enable-background:new 0 0 500 500;" xml:space="preserve">
<style type="text/css">
	.st0{fill:#42B8D3;}
	.st1{fill:#2F9FB2;}
	.st2{fill:#CECECE;}
	.st3{fill:#3F5B75;}
	.st4{fill:#EDEDED;}
	.st5{fill:#2F393F;}
	.st6{fill:#A3A3A3;}
	.st7{fill:#334D60;}
	.st8{fill:#60B29E;}
	.st9{fill:#2C4354;}
	.st10{fill:#E0E0E0;}
	.st11{fill:#2273AA;}
	.st12{fill:#1A2023;}
	.st13{fill:#FFFFFF;}
	.st14{fill:#F2F2F2;}
	.st15{fill:#5E6063;}
	.st16{fill:#D8E6E3;}
	.st17{fill:none;stroke:#D8E6E3;stroke-width:1.1999;stroke-miterlimit:22.9256;}
	.st18{fill:#F1F2F2;}
	.st19{fill:#333E44;}
	.st20{fill:none;stroke:#FFFFFF;stroke-width:3;stroke-miterlimit:10;}
	.st21{fill:#A8AAAD;}
	.st22{fill:#232323;}
	.st23{fill:#EBC7F2;}
	.st24{fill:#939393;}
</style>
<rect class="st0" width="500" height="500"/>
<rect x="29.3" y="310" transform="matrix(0.9342 0.3567 -0.3567 0.9342 125.6054 -6.0768)" class="st1" width="99.9" height="55.1"/>
<polygon class="st1" points="76.5,344.9 42.4,294 135.8,329.6 "/>
<polygon class="st1" points="113.9,317.2 75.3,333 55.3,284.3 81.1,273.8 99.2,281.4 "/>
<polygon class="st1" points="99.2,281.4 81.1,273.8 86.4,286.6 "/>
<polygon class="st1" points="414.9,452.6 371.2,396.4 442,341.4 471.1,378.9 467,412.1 "/>
<polygon class="st1" points="467,412.1 471.1,378.9 452.5,393.4 "/>
<path class="st1" d="M339.6,378.5H178.7c-9.7,0-17.6-7.9-17.6-17.6V175.8c0-9.7,7.9-17.6,17.6-17.6h160.9c9.7,0,17.6,7.9,17.6,17.6
	V361C357.2,370.7,349.3,378.5,339.6,378.5z"/>
<g>
	<path class="st2" d="M345.9,43.2h-75.4v57.8h106.7V74.6C377.2,57.3,363.2,43.2,345.9,43.2z"/>
	<path class="st3" d="M341.5,176.5c0-7-5.7-12.7-12.7-12.7H149c-7,0-12.7,5.7-12.7,12.7v105.9l4.2,82c0,7,5.7,12.7,12.7,12.7h171.3
		c7,0,12.7-5.7,12.7-12.7l4.2-80.6V176.5z"/>
	<g>
		<g>
			<path class="st4" d="M351.8,162.1c0,1.5-1.4,2.7-3,2.7H123c-1.7,0-3-1.2-3-2.7c0-1.5,1.4-2.7,3-2.7h225.8
				C350.5,159.4,351.8,160.6,351.8,162.1z"/>
			<g>
				
					<rect x="83.8" y="194.7" transform="matrix(0.102 -0.9948 0.9948 0.102 -89.434 296.182)" class="st4" width="71" height="5.9"/>
				<polygon class="st4" points="118.7,233.2 106.4,231.6 112.3,211 121.1,209.2 				"/>
			</g>
		</g>
		<g>
			<path class="st5" d="M343.6,169.9c0,0.2-0.2,0.3-0.5,0.3H134.6c-0.3,0-0.5-0.1-0.5-0.3v-15.1c0-0.2,0.2-0.3,0.5-0.3h208.4
				c0.3,0,0.5,0.1,0.5,0.3V169.9z"/>
			<path class="st6" d="M345.8,158.7c0-0.2-0.2-0.3-0.5-0.3H344c-0.3,0-0.5,0.1-0.5,0.3v7.5c0,0.2,0.2,0.3,0.5,0.3h1.2
				c0.3,0,0.5-0.1,0.5-0.3V158.7z"/>
			<path class="st6" d="M134.2,158.7c0-0.2-0.2-0.3-0.5-0.3h-1.2c-0.3,0-0.5,0.1-0.5,0.3v7.5c0,0.2,0.2,0.3,0.5,0.3h1.2
				c0.3,0,0.5-0.1,0.5-0.3V158.7z"/>
		</g>
		<rect x="346.7" y="154.5" class="st5" width="6.9" height="15.7"/>
	</g>
	<path class="st7" d="M337,181c0-6.7-5.5-12.1-12.1-12.1H153.6c-6.7,0-12.1,5.5-12.1,12.1v100.9l4,78.1c0,6.7,5.5,12.1,12.1,12.1
		h163.1c6.7,0,12.1-5.5,12.1-12.1l4-76.8V181z"/>
	<path class="st8" d="M341.2,280.9"/>
	<path class="st9" d="M323.2,196.4c0-5.7-4.7-10.4-10.4-10.4h-147c-5.7,0-10.4,4.7-10.4,10.4V283l3.5,67.1c0,5.7,4.7,10.4,10.4,10.4
		h140.1c5.7,0,10.4-4.7,10.4-10.4l3.5-65.9V196.4z"/>
	<path class="st10" d="M318.2,43.2v180.4H179V100.9h0.1V74.6c0-17.3,14.1-31.4,31.4-31.4H318.2z"/>
	<g>
		<path class="st11" d="M351.8,189.7c0,1.5-1.3,2.7-2.9,2.7H128.8c-1.6,0-2.9-1.2-2.9-2.7c0-1.5,1.3-2.7,2.9-2.7h220.1
			C350.5,187,351.8,188.2,351.8,189.7z"/>
		<g>
			<path class="st5" d="M343.6,200.8c0,0.3-0.2,0.5-0.5,0.5H134.6c-0.3,0-0.5-0.2-0.5-0.5v-22.3c0-0.3,0.2-0.5,0.5-0.5h208.4
				c0.3,0,0.5,0.2,0.5,0.5V200.8z"/>
			<path class="st6" d="M345.8,184.2c0-0.3-0.2-0.5-0.5-0.5H344c-0.3,0-0.5,0.2-0.5,0.5v11.1c0,0.3,0.2,0.5,0.5,0.5h1.2
				c0.3,0,0.5-0.2,0.5-0.5V184.2z"/>
			<path class="st6" d="M134.2,184.2c0-0.3-0.2-0.5-0.5-0.5h-1.2c-0.3,0-0.5,0.2-0.5,0.5v11.1c0,0.3,0.2,0.5,0.5,0.5h1.2
				c0.3,0,0.5-0.2,0.5-0.5V184.2z"/>
		</g>
	</g>
	<g>
		<g>
			<path class="st12" d="M341.3,213.4c0,1.3-1.2,2.4-2.7,2.4H139c-1.5,0-2.7-1.1-2.7-2.4c0-1.3,1.2-2.4,2.7-2.4h199.7
				C340.2,211,341.3,212.1,341.3,213.4z"/>
		</g>
		<g>
			<g>
				<path class="st12" d="M333.9,223.5c0,0.2-0.2,0.4-0.4,0.4H144.3c-0.2,0-0.4-0.2-0.4-0.4v-20.2c0-0.2,0.2-0.4,0.4-0.4h189.1
					c0.2,0,0.4,0.2,0.4,0.4V223.5z"/>
			</g>
			<path class="st12" d="M335.9,208.4c0-0.2-0.2-0.4-0.4-0.4h-1.1c-0.2,0-0.4,0.2-0.4,0.4v10.1c0,0.2,0.2,0.4,0.4,0.4h1.1
				c0.2,0,0.4-0.2,0.4-0.4V208.4z"/>
			<path class="st12" d="M143.9,208.4c0-0.2-0.2-0.4-0.4-0.4h-1.1c-0.2,0-0.4,0.2-0.4,0.4v10.1c0,0.2,0.2,0.4,0.4,0.4h1.1
				c0.2,0,0.4-0.2,0.4-0.4V208.4z"/>
		</g>
	</g>
	<g>
		<g>
			<circle class="st13" cx="310.3" cy="332.7" r="5.9"/>
			<circle class="st13" cx="295.9" cy="332.7" r="5.9"/>
			<circle class="st13" cx="281.4" cy="332.7" r="5.9"/>
			<circle class="st13" cx="266.9" cy="332.7" r="5.9"/>
			<circle class="st13" cx="252.5" cy="332.7" r="5.9"/>
			<circle class="st13" cx="238" cy="332.7" r="5.9"/>
			<circle class="st13" cx="223.5" cy="332.7" r="5.9"/>
			<circle class="st13" cx="209" cy="332.7" r="5.9"/>
			<circle class="st13" cx="194.6" cy="332.7" r="5.9"/>
			<circle class="st13" cx="180.1" cy="332.7" r="5.9"/>
			<circle class="st13" cx="165.6" cy="332.7" r="5.9"/>
		</g>
		<g>
			<circle class="st13" cx="318.4" cy="303.5" r="5.9"/>
			<circle class="st13" cx="304" cy="303.5" r="5.9"/>
			<circle class="st13" cx="289.6" cy="303.5" r="5.9"/>
			<circle class="st13" cx="275.2" cy="303.5" r="5.9"/>
			<circle class="st13" cx="260.8" cy="303.5" r="5.9"/>
			<circle class="st13" cx="246.4" cy="303.5" r="5.9"/>
			<circle class="st13" cx="232.1" cy="303.5" r="5.9"/>
			<circle class="st13" cx="217.7" cy="303.5" r="5.9"/>
			<circle class="st13" cx="203.3" cy="303.5" r="5.9"/>
			<circle class="st13" cx="188.9" cy="303.5" r="5.9"/>
			<circle class="st13" cx="174.5" cy="303.5" r="5.9"/>
			<circle class="st13" cx="160.1" cy="303.5" r="5.9"/>
		</g>
		<g>
			<circle class="st13" cx="311.6" cy="347.4" r="5.9"/>
			<circle class="st13" cx="297.1" cy="347.4" r="5.9"/>
			<circle class="st13" cx="282.7" cy="347.4" r="5.9"/>
			<circle class="st13" cx="268.2" cy="347.4" r="5.9"/>
			<circle class="st13" cx="253.7" cy="347.4" r="5.9"/>
			<circle class="st13" cx="239.3" cy="347.4" r="5.9"/>
			<circle class="st13" cx="224.8" cy="347.4" r="5.9"/>
			<circle class="st13" cx="210.3" cy="347.4" r="5.9"/>
			<circle class="st13" cx="195.8" cy="347.4" r="5.9"/>
			<circle class="st13" cx="181.4" cy="347.4" r="5.9"/>
			<circle class="st13" cx="166.9" cy="347.4" r="5.9"/>
		</g>
		<g>
			<circle class="st13" cx="312.9" cy="318.1" r="5.9"/>
			<circle class="st13" cx="298.4" cy="318.1" r="5.9"/>
			<circle class="st13" cx="283.9" cy="318.1" r="5.9"/>
			<circle class="st13" cx="269.5" cy="318.1" r="5.9"/>
			<circle class="st13" cx="255" cy="318.1" r="5.9"/>
			<circle class="st13" cx="240.5" cy="318.1" r="5.9"/>
			<circle class="st13" cx="226.1" cy="318.1" r="5.9"/>
			<circle class="st13" cx="211.6" cy="318.1" r="5.9"/>
			<circle class="st13" cx="197.1" cy="318.1" r="5.9"/>
			<circle class="st13" cx="182.6" cy="318.1" r="5.9"/>
			<circle class="st13" cx="168.2" cy="318.1" r="5.9"/>
		</g>
		<path class="st13" d="M290.7,360.4c0-2.3-1.9-4.2-4.2-4.2h-94.7c-2.3,0-4.2,1.9-4.2,4.2v0.4c0,2.3,1.9,4.2,4.2,4.2h94.7
			c2.3,0,4.2-1.9,4.2-4.2V360.4z"/>
	</g>
	<polygon class="st7" points="126.6,264.9 136.3,291.7 341.5,291.7 351.9,264.9 	"/>
	<rect x="173.6" y="159.4" class="st14" width="139.3" height="64.1"/>
	<path class="st15" d="M247.3,205.6h-6.7H234c0,0-14.3,16.8-34.8,16.8l9.5,22.6l32,11.7l32-11.7l9.5-22.6
		C261.7,222.4,247.3,205.6,247.3,205.6z"/>
	<g>
		<g>
			<path class="st16" d="M229.2,219.6l-24.6,9.7c-0.1-0.1-0.1-0.2-0.2-0.3l24.6-9.7C229.1,219.4,229.2,219.5,229.2,219.6z"/>
			<path class="st16" d="M229.7,220.3L206,231.5c-0.1-0.1-0.1-0.2-0.2-0.3l23.7-11.2C229.6,220.1,229.6,220.2,229.7,220.3z"/>
			<path class="st16" d="M230.2,220.9l-22.7,12.6c-0.1-0.1-0.1-0.2-0.2-0.3l22.7-12.6C230,220.8,230.1,220.9,230.2,220.9z"/>
			<path class="st16" d="M230.7,221.6l-21.6,13.9c-0.1-0.1-0.2-0.2-0.2-0.3l21.6-13.9C230.6,221.4,230.7,221.5,230.7,221.6z"/>
			<path class="st16" d="M231.3,222.1l-20.4,15.1c-0.1-0.1-0.2-0.2-0.3-0.2l20.4-15.1C231.1,222,231.2,222.1,231.3,222.1z"/>
			<path class="st16" d="M231.9,222.7l-19.2,16.2c-0.1-0.1-0.2-0.2-0.3-0.2l19.2-16.2C231.7,222.5,231.8,222.6,231.9,222.7z"/>
			<path class="st16" d="M232.6,223.1l-17.9,17.3c-0.1-0.1-0.2-0.1-0.3-0.2l17.9-17.3C232.4,223,232.5,223.1,232.6,223.1z"/>
			<path class="st16" d="M233.2,223.6l-16.5,18.2c-0.1-0.1-0.2-0.1-0.3-0.2l16.5-18.2C233,223.5,233.1,223.5,233.2,223.6z"/>
			<path class="st16" d="M233.9,224l-15.1,19c-0.1-0.1-0.2-0.1-0.3-0.2l15.1-19C233.7,223.9,233.8,223.9,233.9,224z"/>
			<path class="st16" d="M234.6,224.3l-13.7,19.8c-0.1-0.1-0.2-0.1-0.3-0.2l13.7-19.8C234.4,224.2,234.5,224.3,234.6,224.3z"/>
			<path class="st16" d="M235.3,224.6L223,245.1c-0.1,0-0.2-0.1-0.3-0.1l12.3-20.4C235.1,224.5,235.2,224.6,235.3,224.6z"/>
			<path class="st16" d="M236,224.9l-10.8,21c-0.1,0-0.2-0.1-0.3-0.1l10.8-21C235.8,224.8,235.9,224.8,236,224.9z"/>
			<path class="st16" d="M236.7,225.1l-9.3,21.5c-0.1,0-0.2-0.1-0.3-0.1l9.3-21.5C236.5,225,236.6,225.1,236.7,225.1z"/>
			<path class="st16" d="M237.4,225.3l-7.9,21.9c-0.1,0-0.2-0.1-0.3-0.1l7.9-21.9C237.2,225.2,237.3,225.3,237.4,225.3z"/>
			<path class="st16" d="M238.1,225.5l-6.4,22.3c-0.1,0-0.2,0-0.4-0.1l6.4-22.3C237.9,225.4,238,225.4,238.1,225.5z"/>
			<path class="st16" d="M238.9,225.6l-4.9,22.5c-0.1,0-0.2,0-0.4-0.1l4.9-22.5C238.6,225.5,238.7,225.6,238.9,225.6z"/>
			<path class="st16" d="M239.6,225.7l-3.4,22.7c-0.1,0-0.2,0-0.4,0l3.4-22.7C239.3,225.6,239.5,225.6,239.6,225.7z"/>
			<path class="st16" d="M240.3,225.7l-1.9,22.8c-0.1,0-0.2,0-0.4,0l1.9-22.8C240.1,225.7,240.2,225.7,240.3,225.7z"/>
			<path class="st16" d="M241,225.7l-0.4,22.9c-0.1,0-0.2,0-0.4,0l0.4-22.9C240.8,225.7,240.9,225.7,241,225.7L241,225.7z"/>
			<path class="st16" d="M241.7,225.7l1.1,22.9c-0.1,0-0.2,0-0.4,0l-1.1-22.9C241.5,225.7,241.6,225.7,241.7,225.7z"/>
			<path class="st16" d="M242.4,225.6l2.6,22.8c-0.1,0-0.2,0-0.4,0l-2.6-22.8C242.2,225.7,242.3,225.7,242.4,225.6z"/>
			<path class="st16" d="M243.2,225.6l4.1,22.6c-0.1,0-0.2,0-0.4,0l-4.1-22.6C242.9,225.6,243,225.6,243.2,225.6z"/>
			<path class="st16" d="M243.9,225.4l5.6,22.4c-0.1,0-0.2,0-0.4,0.1l-5.6-22.4C243.6,225.5,243.8,225.5,243.9,225.4z"/>
			<path class="st16" d="M244.6,225.3l7.1,22.1c-0.1,0-0.2,0.1-0.3,0.1l-7.1-22.1C244.4,225.3,244.5,225.3,244.6,225.3z"/>
			<path class="st16" d="M245.3,225.1l8.6,21.7c-0.1,0-0.2,0.1-0.3,0.1l-8.6-21.7C245.1,225.2,245.2,225.1,245.3,225.1z"/>
			<path class="st16" d="M246,224.9l10.1,21.3c-0.1,0-0.2,0.1-0.3,0.1L245.7,225C245.8,224.9,245.9,224.9,246,224.9z"/>
			<path class="st16" d="M246.7,224.6l11.5,20.8c-0.1,0-0.2,0.1-0.3,0.1l-11.5-20.7C246.5,224.7,246.6,224.6,246.7,224.6z"/>
			<path class="st16" d="M247.4,224.3l13,20.1c-0.1,0.1-0.2,0.1-0.3,0.1l-13-20.1C247.2,224.4,247.3,224.3,247.4,224.3z"/>
			<path class="st16" d="M248.1,224l14.4,19.4c-0.1,0.1-0.2,0.1-0.3,0.2l-14.4-19.4C247.9,224.1,248,224,248.1,224z"/>
			<path class="st16" d="M248.8,223.6l15.8,18.6c-0.1,0.1-0.2,0.1-0.3,0.2l-15.8-18.6C248.5,223.7,248.6,223.6,248.8,223.6z"/>
			<path class="st16" d="M249.4,223.1l17.2,17.8c-0.1,0.1-0.2,0.1-0.3,0.2l-17.2-17.8C249.2,223.3,249.3,223.2,249.4,223.1z"/>
			<path class="st16" d="M250,222.7l18.5,16.8c-0.1,0.1-0.2,0.1-0.3,0.2l-18.5-16.8C249.8,222.8,249.9,222.7,250,222.7z"/>
			<path class="st16" d="M250.6,222.1l19.8,15.7c-0.1,0.1-0.2,0.2-0.3,0.2l-19.8-15.7C250.5,222.3,250.6,222.2,250.6,222.1z"/>
			<path class="st16" d="M251.2,221.6l21,14.5c-0.1,0.1-0.2,0.2-0.3,0.3l-21-14.5C251.1,221.7,251.1,221.6,251.2,221.6z"/>
			<path class="st16" d="M251.8,220.9l22.2,13.3c-0.1,0.1-0.2,0.2-0.2,0.3l-22.2-13.3C251.6,221.1,251.7,221,251.8,220.9z"/>
			<path class="st16" d="M252.3,220.3l23.2,11.9c-0.1,0.1-0.1,0.2-0.2,0.3L252,220.6C252.1,220.5,252.2,220.4,252.3,220.3z"/>
			<path class="st16" d="M252.7,219.6l24.2,10.5c-0.1,0.1-0.1,0.2-0.2,0.3l-24.2-10.5C252.6,219.8,252.6,219.7,252.7,219.6z"/>
			<path class="st16" d="M253.1,218.8l25,9c-0.1,0.1-0.1,0.2-0.2,0.3l-25-9C253,219.1,253.1,219,253.1,218.8z"/>
			<path class="st16" d="M228.8,218.8l-25.4,8.1c-0.1-0.1-0.1-0.2-0.2-0.3l25.4-8.1C228.7,218.6,228.8,218.7,228.8,218.8z"/>
		</g>
		<g>
			<path class="st16" d="M274.7,232.2v-0.4l0.8,0.4c-0.1,0.1-0.1,0.2-0.2,0.3L274.7,232.2L274.7,232.2z M274.7,229.5v-0.4l2.2,0.9
				c-0.1,0.1-0.1,0.2-0.2,0.3L274.7,229.5L274.7,229.5z M274.7,227v-0.4l3.4,1.2c-0.1,0.1-0.1,0.2-0.2,0.3L274.7,227z M274.7,226.6
				v0.4l-2.2-0.8c0-0.1,0.1-0.1,0.1-0.2l0.1-0.2L274.7,226.6L274.7,226.6z M274.7,229.1v0.4l-2.6-1.1V228L274.7,229.1L274.7,229.1z
				 M274.7,231.8v0.4l-2.6-1.4v-0.4L274.7,231.8L274.7,231.8z M272.1,236.3V236l0.2,0.1L272.1,236.3L272.1,236.3z M272.1,233.5v-0.4
				l1.9,1.1c-0.1,0.1-0.2,0.2-0.2,0.3L272.1,233.5z M272.1,228v0.4l-0.6-0.3c0.1-0.1,0.1-0.2,0.2-0.3L272.1,228L272.1,228z
				 M272.1,230.5v0.4l-1.9-1c0.1-0.1,0.1-0.2,0.2-0.3L272.1,230.5L272.1,230.5z M272.1,233.1v0.4l-2.4-1.5v-0.4L272.1,233.1
				L272.1,233.1z M272.1,236v0.3l-0.1,0.1l-2.3-1.6v-0.4L272.1,236L272.1,236z M269.6,237.7v-0.5l0.8,0.6c-0.1,0.1-0.2,0.2-0.3,0.2
				L269.6,237.7z M269.6,231.7v0.4l-0.8-0.5c0.1-0.1,0.2-0.2,0.2-0.3L269.6,231.7L269.6,231.7z M269.6,234.3v0.4l-1.7-1.2v-0.4
				L269.6,234.3L269.6,234.3z M269.6,237.2v0.5l-1.7-1.3v-0.5L269.6,237.2L269.6,237.2z M268,239.4v-0.5l0.6,0.5
				c-0.1,0.1-0.2,0.1-0.3,0.2L268,239.4z M268,233.2v0.4l-0.6-0.4c0.1-0.1,0.2-0.2,0.3-0.3L268,233.2L268,233.2z M268,235.9v0.5
				l-1.8-1.4v-0.5L268,235.9L268,235.9z M268,238.9v0.5l-1.8-1.6v-0.5L268,238.9L268,238.9z M266.2,241v-0.5l0.4,0.4
				C266.5,241,266.4,241,266.2,241L266.2,241z M266.2,234.5v0.5l-0.4-0.3c0.1-0.1,0.2-0.2,0.3-0.2L266.2,234.5L266.2,234.5z
				 M266.2,237.3v0.5l-1.8-1.7v-0.3l0.1-0.1L266.2,237.3L266.2,237.3z M266.2,240.5v0.5l-1.8-1.9v-0.5L266.2,240.5L266.2,240.5z
				 M264.4,242.3V242l0.2,0.2L264.4,242.3z M264.4,235.9v0.3l-0.2-0.2L264.4,235.9L264.4,235.9z M264.4,238.6v0.5l-0.8-0.9v-0.5
				L264.4,238.6L264.4,238.6z M264.4,242v0.3l-0.1,0.1l-0.7-0.8V241L264.4,242z M263.6,237.7v0.5l-1-1c0.1-0.1,0.2-0.1,0.3-0.2
				L263.6,237.7L263.6,237.7z M263.6,241v0.5l-1.9-2.2v-0.5L263.6,241L263.6,241z M261.6,242.8v-0.6l0.8,1.1
				c-0.1,0.1-0.2,0.1-0.3,0.2L261.6,242.8z M261.6,238.8v0.5l-0.8-1c0.1-0.1,0.2-0.1,0.3-0.2L261.6,238.8L261.6,238.8z M261.6,242.2
				v0.6l-1.9-2.6v-0.6L261.6,242.2L261.6,242.2z M259.7,244v-0.7l0.7,1c-0.1,0.1-0.2,0.1-0.3,0.1L259.7,244z M259.7,239.6v0.6
				l-0.7-0.9c0.1-0.1,0.2-0.1,0.3-0.2L259.7,239.6L259.7,239.6z M259.7,243.4v0.7l-2-3.1v-0.7L259.7,243.4L259.7,243.4z
				 M257.7,245.2v-0.7l0.5,0.9c-0.1,0-0.2,0.1-0.3,0.1L257.7,245.2z M257.7,240.3v0.7l-0.5-0.8c0.1,0,0.2-0.1,0.3-0.1L257.7,240.3
				L257.7,240.3z M257.7,244.4l-2-3.6v0.7l2,3.6V244.4L257.7,244.4z M255.7,246.3v-0.8l0.3,0.7C256,246.2,255.8,246.2,255.7,246.3
				L255.7,246.3z M255.7,240.8v0.7l-0.3-0.6C255.5,240.9,255.6,240.9,255.7,240.8L255.7,240.8L255.7,240.8z M255.7,245.4l-1.9-3.9
				l-0.2,0.1v0.4l2,4.3V245.4L255.7,245.4z M253.7,246.9v-0.5l0.2,0.4L253.7,246.9z M253.7,241.6v0.4l-0.2-0.4
				C253.6,241.6,253.7,241.6,253.7,241.6L253.7,241.6z M253.7,246.4v0.5l-0.2,0l-1.9-4.7v0c0.1,0,0.2-0.1,0.3-0.1L253.7,246.4
				L253.7,246.4z M251.7,247.4L251.7,247.4L251.7,247.4L251.7,247.4z M251.7,242.2L251.7,242.2L251.7,242.2L251.7,242.2L251.7,242.2
				z M251.7,247.4L251.7,247.4c-0.1,0.1-0.2,0.1-0.3,0.1l-1.5-4.8c0.1,0,0.2-0.1,0.3-0.1L251.7,247.4L251.7,247.4z M229.3,247.2
				v-0.3l1.6-4.5c0.1,0,0.2,0.1,0.3,0.1l-1.7,4.8L229.3,247.2L229.3,247.2z M229.3,242.2v-0.2l0.1,0L229.3,242.2L229.3,242.2z
				 M233.2,242.9l-1.4,4.9c-0.1,0-0.2,0-0.4-0.1l1.4-4.9C232.9,242.8,233,242.8,233.2,242.9L233.2,242.9z M235,243.2l-1.1,4.9
				c-0.1,0-0.2,0-0.4-0.1l1.1-4.9C234.8,243.2,234.9,243.2,235,243.2L235,243.2z M236.9,243.4l-0.7,5c-0.1,0-0.2,0-0.4,0l0.7-5
				C236.7,243.4,236.8,243.4,236.9,243.4L236.9,243.4z M238.8,243.6l-0.4,5c-0.1,0-0.2,0-0.4,0l0.4-5
				C238.6,243.5,238.7,243.6,238.8,243.6L238.8,243.6z M240.7,243.6l-0.1,5c-0.1,0-0.2,0-0.4,0l0.1-5
				C240.5,243.6,240.6,243.6,240.7,243.6L240.7,243.6z M242.6,243.6l0.2,5c-0.1,0-0.2,0-0.4,0l-0.2-5
				C242.4,243.6,242.5,243.6,242.6,243.6L242.6,243.6z M244.5,243.5l0.6,5c-0.1,0-0.2,0-0.4,0l-0.6-5
				C244.3,243.5,244.4,243.5,244.5,243.5L244.5,243.5z M246.4,243.3l0.9,4.9c-0.1,0-0.2,0-0.4,0l-0.9-4.9
				C246.1,243.3,246.3,243.3,246.4,243.3L246.4,243.3z M248.3,243l1.2,4.9c-0.1,0-0.2,0-0.4,0.1l-1.2-4.9
				C248,243,248.1,243,248.3,243z M229.3,241.9v0.2l-1.9,4.5l-0.1,0v-0.7l1.8-4.1C229.1,241.9,229.2,241.9,229.3,241.9L229.3,241.9z
				 M229.3,246.9v0.3l-0.1,0L229.3,246.9L229.3,246.9z M227.3,241.8v-0.6c0.1,0,0.2,0.1,0.3,0.1L227.3,241.8z M227.3,241.2v0.6
				l-2,3.9V245L227.3,241.2L227.3,241.2L227.3,241.2z M227.3,245.9v0.7l-0.3-0.1L227.3,245.9L227.3,245.9z M225.3,241.3l0.4-0.7
				c-0.1,0-0.2-0.1-0.3-0.1l-0.1,0.2V241.3z M225.3,240.6v0.7l-2,3.3v-0.7L225.3,240.6L225.3,240.6z M225.3,245v0.8l-0.1,0.2
				c-0.1,0-0.2-0.1-0.3-0.1L225.3,245L225.3,245z M223.3,240.6l0.6-0.9c-0.1-0.1-0.2-0.1-0.3-0.2l-0.3,0.4V240.6z M223.3,240v0.6
				l-2,2.8v-0.6L223.3,240L223.3,240z M223.3,243.9v0.7l-0.3,0.4c-0.1,0-0.2-0.1-0.3-0.1L223.3,243.9L223.3,243.9z M221.3,239.8
				v-0.6l0.4-0.6c0.1,0.1,0.2,0.1,0.3,0.2L221.3,239.8z M221.3,239.2v0.6l-2.5,3.2c-0.1,0-0.2-0.1-0.2-0.1v-0.1L221.3,239.2
				L221.3,239.2z M221.3,242.8l-0.8,1.1c0.1,0.1,0.2,0.1,0.3,0.2l0.4-0.6V242.8L221.3,242.8z M218.5,239.8l1.8-2
				c-0.1-0.1-0.2-0.1-0.3-0.2l-1.5,1.6V239.8L218.5,239.8z M218.5,236.7v-0.1V236.7L218.5,236.7z M218.5,236.6v0.1l-1.9,1.8V238
				l1.6-1.6C218.4,236.5,218.5,236.5,218.5,236.6L218.5,236.6z M218.5,239.2v0.5l-1.8,2l0,0v-0.5L218.5,239.2L218.5,239.2z
				 M218.5,242.7v0.1V242.7L218.5,242.7L218.5,242.7z M216.7,235.6v-0.5c0.1,0.1,0.2,0.1,0.3,0.2L216.7,235.6z M216.7,235.1v0.5
				l-1.8,1.5v-0.5L216.7,235.1L216.7,235.1L216.7,235.1z M216.7,238v0.5l-1.8,1.7v-0.5L216.7,238L216.7,238z M216.7,241.3v0.5
				c-0.1-0.1-0.2-0.1-0.3-0.2L216.7,241.3L216.7,241.3z M214.9,234.3v-0.4l0.2-0.2c0.1,0.1,0.2,0.2,0.3,0.2L214.9,234.3z
				 M214.9,233.9v0.4l-1.7,1.3v-0.4L214.9,233.9L214.9,233.9z M214.9,236.6v0.5l-1.7,1.5v-0.5L214.9,236.6L214.9,236.6z
				 M214.9,239.7v0.5l-0.2,0.2c-0.1-0.1-0.2-0.1-0.3-0.2L214.9,239.7L214.9,239.7z M213.2,232.9v-0.4l0.4-0.3
				c0.1,0.1,0.2,0.2,0.2,0.3L213.2,232.9z M213.2,232.5v0.4l-2.5,1.6v-0.4L213.2,232.5L213.2,232.5z M213.2,235.1v0.4l-2.3,1.7
				c-0.1-0.1-0.2-0.1-0.2-0.2v0L213.2,235.1L213.2,235.1z M213.2,238.1v0.5l-0.4,0.3c-0.1-0.1-0.2-0.2-0.3-0.2L213.2,238.1
				L213.2,238.1z M210.7,231.8v-0.4l1.6-0.9c0.1,0.1,0.1,0.2,0.2,0.3L210.7,231.8L210.7,231.8z M210.7,229.3v-0.4l0.3-0.1
				c0.1,0.1,0.1,0.2,0.2,0.3L210.7,229.3z M210,227.2l-2.1,0.8v-0.4l1.9-0.8C209.9,227,209.9,227.1,210,227.2L210,227.2z
				 M210.7,228.9v0.4l-2.8,1.3v-0.4L210.7,228.9L210.7,228.9z M210.7,231.4v0.4l-2.8,1.5v-0.4L210.7,231.4L210.7,231.4z
				 M210.7,234.1v0.4l-1.5,1c-0.1-0.1-0.2-0.2-0.2-0.3L210.7,234.1L210.7,234.1z M210.7,237L210.7,237L210.7,237L210.7,237
				L210.7,237z M207.9,225.5v-0.4l0.9-0.3l0,0.1c0,0.1,0.1,0.1,0.1,0.2L207.9,225.5z M207.9,228l-3.3,1.3c-0.1-0.1-0.1-0.2-0.2-0.3
				l3.4-1.4V228L207.9,228z M207.9,225.2v0.4l-4.5,1.4c-0.1-0.1-0.1-0.2-0.2-0.3L207.9,225.2L207.9,225.2z M207.9,230.2v0.4
				l-1.9,0.9c-0.1-0.1-0.1-0.2-0.2-0.3L207.9,230.2L207.9,230.2z M207.9,232.9v0.4l-0.4,0.2c-0.1-0.1-0.1-0.2-0.2-0.3L207.9,232.9z"
				/>
			<path class="st17" d="M210,227.2l-5.4,2.1c-0.1-0.1-0.1-0.2-0.2-0.3l5.4-2.1C209.9,227,209.9,227.1,210,227.2L210,227.2z
				 M211.1,229l-5.2,2.4c-0.1-0.1-0.1-0.2-0.2-0.3l5.2-2.4C211,228.8,211.1,228.9,211.1,229L211.1,229z M212.4,230.8l-5,2.8
				c-0.1-0.1-0.1-0.2-0.2-0.3l5-2.8C212.3,230.6,212.4,230.7,212.4,230.8L212.4,230.8z M213.8,232.4l-4.7,3
				c-0.1-0.1-0.2-0.2-0.2-0.3l4.7-3C213.7,232.3,213.8,232.3,213.8,232.4L213.8,232.4z M215.3,234l-4.5,3.3
				c-0.1-0.1-0.2-0.2-0.3-0.2l4.5-3.3C215.2,233.8,215.3,233.9,215.3,234L215.3,234z M216.9,235.4l-4.2,3.5
				c-0.1-0.1-0.2-0.2-0.3-0.2l4.2-3.5C216.8,235.2,216.8,235.3,216.9,235.4L216.9,235.4z M218.6,236.6l-3.9,3.8
				c-0.1-0.1-0.2-0.1-0.3-0.2l3.9-3.8C218.4,236.5,218.5,236.6,218.6,236.6L218.6,236.6z M220.3,237.8l-3.6,4
				c-0.1-0.1-0.2-0.1-0.3-0.2l3.6-4C220.1,237.7,220.2,237.7,220.3,237.8L220.3,237.8z M222.1,238.9l-3.3,4.2
				c-0.1-0.1-0.2-0.1-0.3-0.2l3.3-4.2C221.9,238.7,222,238.8,222.1,238.9L222.1,238.9z M223.9,239.8l-3,4.3
				c-0.1-0.1-0.2-0.1-0.3-0.2l3-4.3C223.7,239.7,223.8,239.7,223.9,239.8L223.9,239.8z M225.7,240.6l-2.7,4.5
				c-0.1,0-0.2-0.1-0.3-0.1l2.7-4.5C225.5,240.5,225.6,240.6,225.7,240.6L225.7,240.6z M227.5,241.3l-2.4,4.6
				c-0.1,0-0.2-0.1-0.3-0.1l2.4-4.6C227.3,241.2,227.4,241.3,227.5,241.3L227.5,241.3z M229.4,241.9l-2,4.7c-0.1,0-0.2-0.1-0.3-0.1
				l2-4.7C229.2,241.9,229.3,241.9,229.4,241.9L229.4,241.9z M231.3,242.4l-1.7,4.8c-0.1,0-0.2-0.1-0.3-0.1l1.7-4.8
				C231,242.4,231.2,242.4,231.3,242.4L231.3,242.4z M233.2,242.9l-1.4,4.9c-0.1,0-0.2,0-0.4-0.1l1.4-4.9
				C232.9,242.8,233,242.8,233.2,242.9L233.2,242.9z M235,243.2l-1.1,4.9c-0.1,0-0.2,0-0.4-0.1l1.1-4.9
				C234.8,243.2,234.9,243.2,235,243.2L235,243.2z M236.9,243.4l-0.7,5c-0.1,0-0.2,0-0.4,0l0.7-5
				C236.7,243.4,236.8,243.4,236.9,243.4L236.9,243.4z M238.8,243.6l-0.4,5c-0.1,0-0.2,0-0.4,0l0.4-5
				C238.6,243.5,238.7,243.6,238.8,243.6L238.8,243.6z M240.7,243.6l-0.1,5c-0.1,0-0.2,0-0.4,0l0.1-5
				C240.5,243.6,240.6,243.6,240.7,243.6L240.7,243.6z M242.6,243.6l0.2,5c-0.1,0-0.2,0-0.4,0l-0.2-5
				C242.4,243.6,242.5,243.6,242.6,243.6L242.6,243.6z M244.5,243.5l0.6,5c-0.1,0-0.2,0-0.4,0l-0.6-5
				C244.3,243.5,244.4,243.5,244.5,243.5L244.5,243.5z M246.4,243.3l0.9,4.9c-0.1,0-0.2,0-0.4,0l-0.9-4.9
				C246.1,243.3,246.3,243.3,246.4,243.3L246.4,243.3z M248.3,243l1.2,4.9c-0.1,0-0.2,0-0.4,0.1l-1.2-4.9
				C248,243,248.1,243,248.3,243L248.3,243z M250.1,242.6l1.5,4.8c-0.1,0-0.2,0.1-0.3,0.1l-1.5-4.8
				C249.9,242.6,250,242.6,250.1,242.6L250.1,242.6z M252,242.1l1.9,4.7c-0.1,0-0.2,0.1-0.3,0.1l-1.9-4.7
				C251.8,242.2,251.9,242.1,252,242.1L252,242.1z M253.9,241.5l2.2,4.6c-0.1,0-0.2,0.1-0.3,0.1l-2.2-4.6
				C253.6,241.6,253.8,241.5,253.9,241.5L253.9,241.5z M255.7,240.8l2.5,4.5c-0.1,0-0.2,0.1-0.3,0.1l-2.5-4.5
				C255.5,240.9,255.6,240.9,255.7,240.8L255.7,240.8z M257.5,240l2.8,4.4c-0.1,0.1-0.2,0.1-0.3,0.1l-2.8-4.4
				C257.3,240.1,257.4,240.1,257.5,240L257.5,240z M259.3,239.1l3.1,4.2c-0.1,0.1-0.2,0.1-0.3,0.2l-3.1-4.2
				C259.1,239.3,259.2,239.2,259.3,239.1L259.3,239.1z M261.1,238.1l3.5,4.1c-0.1,0.1-0.2,0.1-0.3,0.2l-3.5-4.1
				C260.9,238.3,261,238.2,261.1,238.1L261.1,238.1z M262.8,237l3.8,3.9c-0.1,0.1-0.2,0.1-0.3,0.2l-3.8-3.9
				C262.6,237.1,262.7,237.1,262.8,237L262.8,237z M264.5,235.8l4,3.7c-0.1,0.1-0.2,0.1-0.3,0.2l-4-3.7
				C264.3,235.9,264.4,235.8,264.5,235.8L264.5,235.8z M266.1,234.4l4.3,3.4c-0.1,0.1-0.2,0.2-0.3,0.2l-4.3-3.4
				C265.9,234.6,266,234.5,266.1,234.4L266.1,234.4z M267.6,232.9l4.6,3.2c-0.1,0.1-0.2,0.2-0.3,0.3l-4.6-3.2
				C267.5,233.1,267.6,233,267.6,232.9L267.6,232.9z M269.1,231.3l4.8,2.9c-0.1,0.1-0.2,0.2-0.2,0.3l-4.8-2.9
				C268.9,231.5,269,231.4,269.1,231.3L269.1,231.3z M270.4,229.6l5.1,2.6c-0.1,0.1-0.1,0.2-0.2,0.3l-5.1-2.6
				C270.3,229.8,270.3,229.7,270.4,229.6L270.4,229.6z M271.6,227.8l5.3,2.3c-0.1,0.1-0.1,0.2-0.2,0.3l-5.3-2.3
				C271.5,228,271.6,227.9,271.6,227.8L271.6,227.8z M272.7,225.8l5.5,2c-0.1,0.1-0.1,0.2-0.2,0.3l-5.5-2c0-0.1,0.1-0.1,0.1-0.2
				L272.7,225.8L272.7,225.8z M209,225.2l-5.6,1.8c-0.1-0.1-0.1-0.2-0.2-0.3l5.6-1.8l0,0.1C208.9,225,208.9,225.1,209,225.2z"/>
		</g>
	</g>
	<g>
		<rect x="197.1" y="215.1" class="st18" width="85.2" height="2.2"/>
		<g>
			<rect x="236.8" y="209.6" class="st18" width="2.3" height="7.7"/>
			<rect x="240.4" y="209.6" class="st18" width="2.3" height="7.7"/>
		</g>
	</g>
	<path class="st19" d="M331.8,213.7h-49.4c-7,19.6-23,33.3-41.7,33.3S206,233.3,199,213.7h-49.4c-6.4,0-11.5,6.3-11.5,14v26.2
		c0,7.7,5.2,14,11.5,14h182.1c6.4,0,11.5-6.3,11.5-14v-26.2C343.3,220,338.1,213.7,331.8,213.7z"/>
	<polyline class="st20" points="170.9,223.1 204,206.3 204,197.7 	"/>
	<polyline class="st20" points="313.1,223.1 280.1,206.4 280.1,197.8 	"/>
	<g>
		<circle class="st15" cx="170.9" cy="222.9" r="18.2"/>
		<circle class="st21" cx="170.9" cy="222.9" r="5.7"/>
	</g>
	<rect x="124.1" y="178" class="st5" width="5.9" height="23.2"/>
	<rect x="347.7" y="178" class="st5" width="5.9" height="23.2"/>
	<polyline class="st20" points="146.1,208 146.1,189.7 330.9,191 330.9,209.3 	"/>
	<rect x="208.9" y="187.7" class="st22" width="11.7" height="5.4"/>
	<rect x="266.4" y="187.7" class="st22" width="11.7" height="5.4"/>
	<g>
		<circle class="st15" cx="312.1" cy="222.9" r="18.2"/>
		<circle class="st21" cx="312.1" cy="222.9" r="5.7"/>
	</g>
	<path class="st10" d="M318.3,74.6c0-17.3,14.1-31.4,31.4-31.4H210.4v57.8h107.9V74.6z"/>
</g>
<g>
	<polygon class="st14" points="414.9,446.3 371.2,390.1 442,335.1 471.1,372.6 467,405.8 	"/>
	<polygon class="st10" points="467,405.8 471.1,372.6 452.5,387.1 	"/>
</g>
<rect x="369.4" y="273.3" class="st1" width="3.7" height="89.9"/>
<polygon class="st1" points="371.2,268.4 369.4,273.3 373.1,273.3 "/>
<g>
	
		<rect x="24" y="313.9" transform="matrix(0.9342 0.3567 -0.3567 0.9342 126.6396 -3.9171)" class="st23" width="99.9" height="55.1"/>
	<polygon class="st24" points="71.1,348.8 37.1,297.9 130.5,333.5 	"/>
</g>
<g>
	<polygon class="st14" points="108.6,321.1 69.9,336.9 50,288.2 75.8,277.7 93.9,285.2 	"/>
	<polygon class="st10" points="93.9,285.2 75.8,277.7 81,290.5 	"/>
</g>
<g>
	<rect x="367.5" y="273.3" width="3.7" height="89.9"/>
	<polygon points="369.4,268.4 367.5,273.3 371.2,273.3 	"/>
</g>
</svg>
